<svg xmlns="http://www.w3.org/2000/svg" viewBox="0 0 300 90">
  <path d="M.83 45v43.5h63v-21h-39v-66h-24V45zM117 41.75c-8.4 22.2-15.9 41.8-16.7 43.6l-1.3 3.2h24.5l2.3-6.5 2.4-6.5h34.6l2.3 6.5 2.3 6.5h11.8c6.5 0 11.8-.1 11.8-.3 0-.1-7.3-19.5-16.3-43.2l-16.3-43-13.1-.3-13-.3-15.3 40.3zm37 13.5c0 1-2.6 1.3-9.6 1.3-9.4 0-9.5 0-8.8-2.3 4-13 8.6-27.5 9.1-28.7.4-1.3 9.2 26.6 9.3 29.7zM226 45v43.5h25.8c30.6 0 34.3-.7 40.8-7.5 2.7-2.7 4.5-5.8 5.2-8.8 3.5-13.6-1-24.1-11.8-27.7-3.7-1.2-4-1.6-2.5-2.5 6.9-4 11.5-10.8 11.5-17 0-11-5.5-19.1-14.9-21.9-4.4-1.3-10.4-1.6-29.8-1.6H226V45zm42.5-23.5c3.2 3 3.4 8.4.3 11.7-1.9 2.1-3 2.3-11 2.3H249V18.2l8.5.5c7.2.4 8.9.8 11 2.8zM270 55c5.1 2.6 5.4 10.4.7 13.9-2.3 1.7-4.6 2.2-12.3 2.4l-9.4.4V53.5h9c6.2 0 10 .5 12 1.5zM75.8 65.6c-5.7 3-7.7 12.7-3.7 17.8C74.6 86.6 79 89 82.5 89c13 0 18.4-16.9 7.5-23.4-3.5-2-10.6-2-14.2 0zM200.9 65.77c-5.8 3.6-7.5 11.1-3.9 17 4.8 8 15.9 8.3 21.9.7 4.1-5.2 2-14.9-3.9-17.9-3.8-2-10.8-1.9-14.1.2z"/>
</svg>
